<svg width="58" height="8" viewBox="0 0 58 8" fill="none" xmlns="http://www.w3.org/2000/svg">
<path d="M0.224121 4.06885C0.224121 3.56787 0.282715 3.12256 0.399902 2.73291C0.51709 2.34033 0.689941 2.01074 0.918457 1.74414C1.14697 1.47461 1.42822 1.26953 1.76221 1.12891C2.09619 0.988281 2.47998 0.917969 2.91357 0.917969C3.08643 0.917969 3.25635 0.931152 3.42334 0.95752C3.59033 0.980957 3.74268 1.00879 3.88037 1.04102C4.03857 1.07617 4.19092 1.11572 4.3374 1.15967C4.32861 1.23584 4.31543 1.31641 4.29785 1.40137C4.2832 1.47754 4.25977 1.56396 4.22754 1.66064C4.19824 1.75439 4.15869 1.85254 4.10889 1.95508C4.00049 1.91113 3.88184 1.87305 3.75293 1.84082C3.6416 1.81152 3.51416 1.78516 3.37061 1.76172C3.22705 1.73828 3.07471 1.72656 2.91357 1.72656C2.65283 1.72656 2.41699 1.7793 2.20605 1.88477C1.99805 1.99023 1.81934 2.14404 1.66992 2.34619C1.52344 2.54541 1.41064 2.79004 1.33154 3.08008C1.25244 3.37012 1.21289 3.69971 1.21289 4.06885C1.21289 4.43506 1.25244 4.75732 1.33154 5.03564C1.41064 5.31396 1.52344 5.54688 1.66992 5.73438C1.81934 5.92188 1.99805 6.06396 2.20605 6.16064C2.41699 6.25439 2.65283 6.30127 2.91357 6.30127C3.07764 6.30127 3.23438 6.28955 3.38379 6.26611C3.5332 6.24268 3.66504 6.21631 3.7793 6.18701C3.91406 6.15479 4.03857 6.11523 4.15283 6.06836C4.18506 6.13574 4.21289 6.21045 4.23633 6.29248C4.25684 6.36279 4.27441 6.44775 4.28906 6.54736C4.30664 6.64404 4.3125 6.75391 4.30664 6.87695C4.16895 6.92383 4.02246 6.96338 3.86719 6.99561C3.73535 7.02783 3.58594 7.05566 3.41895 7.0791C3.25488 7.10254 3.08643 7.11426 2.91357 7.11426C2.02295 7.11426 1.35205 6.85938 0.900879 6.34961C0.449707 5.83691 0.224121 5.07666 0.224121 4.06885ZM7.5542 7.11426C7.11475 7.11426 6.73682 7.04395 6.42041 6.90332C6.10693 6.75977 5.84912 6.55469 5.64697 6.28809C5.44775 6.01855 5.30127 5.69336 5.20752 5.3125C5.11377 4.92871 5.06689 4.49658 5.06689 4.01611C5.06689 3.53564 5.11523 3.10352 5.21191 2.71973C5.31152 2.33594 5.4624 2.01074 5.66455 1.74414C5.86963 1.47754 6.12891 1.27393 6.44238 1.1333C6.75586 0.989746 7.12646 0.917969 7.5542 0.917969C8.00244 0.917969 8.38184 0.985352 8.69238 1.12012C9.00293 1.25195 9.25488 1.44678 9.44824 1.70459C9.64453 1.9624 9.78662 2.27881 9.87451 2.65381C9.9624 3.02588 10.0063 3.45215 10.0063 3.93262C10.0063 4.41602 9.95947 4.854 9.86572 5.24658C9.77197 5.63623 9.62549 5.97021 9.42627 6.24854C9.22705 6.52393 8.97217 6.73779 8.66162 6.89014C8.354 7.03955 7.98486 7.11426 7.5542 7.11426ZM7.5542 6.34521C7.83252 6.34521 8.06396 6.28662 8.24854 6.16943C8.43604 6.05225 8.58545 5.88818 8.69678 5.67725C8.81104 5.46338 8.8916 5.2085 8.93848 4.9126C8.98828 4.6167 9.01318 4.29004 9.01318 3.93262C9.01318 3.54883 8.98828 3.21631 8.93848 2.93506C8.8916 2.65088 8.81104 2.4165 8.69678 2.23193C8.58545 2.04443 8.43604 1.90527 8.24854 1.81445C8.06396 1.72363 7.83252 1.67822 7.5542 1.67822C7.27588 1.67822 7.04004 1.73096 6.84668 1.83643C6.65625 1.93896 6.50244 2.09131 6.38525 2.29346C6.26807 2.49268 6.18311 2.7373 6.13037 3.02734C6.08057 3.31738 6.05566 3.64697 6.05566 4.01611C6.05566 4.38525 6.08057 4.71484 6.13037 5.00488C6.18311 5.29492 6.26807 5.53955 6.38525 5.73877C6.50244 5.93506 6.65625 6.08594 6.84668 6.19141C7.04004 6.29395 7.27588 6.34521 7.5542 6.34521ZM11.0654 1.03223H12.6431L14.1504 4.75879L14.7524 6.45508L14.6953 4.75879L14.6646 1.03223H15.6138V7H14.0757L12.5332 3.26465L11.9312 1.54199L11.9883 3.26465L12.019 7H11.0654V1.03223ZM17.9033 1.77051C17.6836 1.77344 17.4844 1.77637 17.3057 1.7793C17.1299 1.78223 16.979 1.78662 16.853 1.79248C16.7065 1.79834 16.5762 1.8042 16.4619 1.81006C16.4561 1.7749 16.4517 1.73975 16.4487 1.70459C16.4399 1.64307 16.4355 1.56689 16.4355 1.47607C16.4355 1.42334 16.4385 1.36035 16.4443 1.28711C16.4531 1.21094 16.4678 1.12598 16.4883 1.03223H20.3994C20.4023 1.06152 20.4053 1.09229 20.4082 1.12451C20.4111 1.15088 20.4141 1.18164 20.417 1.2168C20.4199 1.24902 20.4214 1.28125 20.4214 1.31348C20.4214 1.37207 20.4155 1.44824 20.4038 1.54199C20.395 1.63574 20.3774 1.72363 20.3511 1.80566C20.3276 1.80273 20.2661 1.7998 20.1665 1.79688C20.0698 1.79102 19.9526 1.78662 19.8149 1.78369C19.6772 1.78076 19.5278 1.77783 19.3667 1.7749C19.2056 1.77197 19.0488 1.77051 18.8965 1.77051V7H17.9033V1.77051ZM22.2363 1.03223H23.7349L25.519 7H24.5215L23.9766 5.17627H22.0474L21.5288 7H20.5049L22.2363 1.03223ZM23.77 4.41162L22.9658 1.48486L22.2407 4.41162H23.77ZM28.2349 4.06885C28.2349 3.56787 28.2949 3.12256 28.415 2.73291C28.5381 2.34033 28.7168 2.01074 28.9512 1.74414C29.1885 1.47461 29.4785 1.26953 29.8213 1.12891C30.167 0.988281 30.564 0.917969 31.0122 0.917969C31.1821 0.917969 31.355 0.931152 31.5308 0.95752C31.7095 0.980957 31.8721 1.00879 32.0186 1.04102C32.1885 1.07617 32.3525 1.11572 32.5107 1.15967C32.5049 1.23291 32.4932 1.31055 32.4756 1.39258C32.4609 1.46289 32.439 1.54492 32.4097 1.63867C32.3804 1.72949 32.3408 1.82617 32.291 1.92871C32.168 1.88477 32.0361 1.84668 31.8955 1.81445C31.7754 1.78516 31.6377 1.75879 31.4824 1.73535C31.3301 1.71191 31.1733 1.7002 31.0122 1.7002C30.7397 1.7002 30.4937 1.75586 30.2739 1.86719C30.0571 1.97852 29.8726 2.13818 29.7202 2.34619C29.5708 2.55127 29.4551 2.80029 29.373 3.09326C29.2939 3.3833 29.2544 3.7085 29.2544 4.06885C29.2544 4.42627 29.2925 4.74561 29.3687 5.02686C29.4448 5.30811 29.5576 5.54541 29.707 5.73877C29.8564 5.93213 30.0396 6.08008 30.2563 6.18262C30.4761 6.28516 30.728 6.33643 31.0122 6.33643C31.0591 6.33643 31.1118 6.33643 31.1704 6.33643C31.229 6.33643 31.2876 6.33496 31.3462 6.33203C31.4048 6.3291 31.4619 6.32764 31.5176 6.32764C31.5732 6.32471 31.623 6.32031 31.667 6.31445C31.667 6.2207 31.6655 6.11963 31.6626 6.01123C31.6597 5.90283 31.6567 5.79297 31.6538 5.68164C31.6509 5.56738 31.6465 5.45459 31.6406 5.34326C31.6377 5.23193 31.6348 5.125 31.6318 5.02246C31.6201 4.78223 31.6099 4.54053 31.6011 4.29736C31.7065 4.26807 31.8018 4.24902 31.8867 4.24023C31.9746 4.23145 32.0493 4.22705 32.1108 4.22705C32.1724 4.22705 32.2324 4.23145 32.291 4.24023C32.3525 4.24902 32.4082 4.25781 32.458 4.2666C32.5137 4.27832 32.5664 4.29004 32.6162 4.30176C32.6162 4.64746 32.6133 4.97998 32.6074 5.29932C32.6045 5.61572 32.6001 5.89697 32.5942 6.14307C32.5854 6.43311 32.5781 6.70264 32.5723 6.95166L32.4888 7.00879C32.3335 7.0293 32.1738 7.04688 32.0098 7.06152C31.8691 7.07617 31.7109 7.08789 31.5352 7.09668C31.3594 7.1084 31.1851 7.11426 31.0122 7.11426C30.564 7.11426 30.167 7.0498 29.8213 6.9209C29.4785 6.79199 29.1885 6.6001 28.9512 6.34521C28.7168 6.0874 28.5381 5.76953 28.415 5.3916C28.2949 5.01074 28.2349 4.56982 28.2349 4.06885ZM33.7588 1.03223H34.7563V6.17383C34.8794 6.17383 35.0068 6.17236 35.1387 6.16943C35.2734 6.1665 35.4067 6.16357 35.5386 6.16064C35.6733 6.15771 35.8037 6.15479 35.9297 6.15186C36.0586 6.146 36.1802 6.14014 36.2944 6.13428C36.564 6.12256 36.8276 6.11084 37.0854 6.09912C37.0854 6.14893 37.0781 6.22363 37.0635 6.32324C37.0518 6.42285 37.0371 6.52393 37.0195 6.62646C37.002 6.72607 36.9844 6.81396 36.9668 6.89014C36.9521 6.96338 36.9404 7 36.9316 7H33.7588V1.03223ZM40.2847 7.11426C39.8452 7.11426 39.4673 7.04395 39.1509 6.90332C38.8374 6.75977 38.5796 6.55469 38.3774 6.28809C38.1782 6.01855 38.0317 5.69336 37.938 5.3125C37.8442 4.92871 37.7974 4.49658 37.7974 4.01611C37.7974 3.53564 37.8457 3.10352 37.9424 2.71973C38.042 2.33594 38.1929 2.01074 38.395 1.74414C38.6001 1.47754 38.8594 1.27393 39.1729 1.1333C39.4863 0.989746 39.8569 0.917969 40.2847 0.917969C40.7329 0.917969 41.1123 0.985352 41.4229 1.12012C41.7334 1.25195 41.9854 1.44678 42.1787 1.70459C42.375 1.9624 42.5171 2.27881 42.605 2.65381C42.6929 3.02588 42.7368 3.45215 42.7368 3.93262C42.7368 4.41602 42.6899 4.854 42.5962 5.24658C42.5024 5.63623 42.356 5.97021 42.1567 6.24854C41.9575 6.52393 41.7026 6.73779 41.3921 6.89014C41.0845 7.03955 40.7153 7.11426 40.2847 7.11426ZM40.2847 6.34521C40.563 6.34521 40.7944 6.28662 40.979 6.16943C41.1665 6.05225 41.3159 5.88818 41.4272 5.67725C41.5415 5.46338 41.6221 5.2085 41.6689 4.9126C41.7188 4.6167 41.7437 4.29004 41.7437 3.93262C41.7437 3.54883 41.7188 3.21631 41.6689 2.93506C41.6221 2.65088 41.5415 2.4165 41.4272 2.23193C41.3159 2.04443 41.1665 1.90527 40.979 1.81445C40.7944 1.72363 40.563 1.67822 40.2847 1.67822C40.0063 1.67822 39.7705 1.73096 39.5771 1.83643C39.3867 1.93896 39.2329 2.09131 39.1157 2.29346C38.9985 2.49268 38.9136 2.7373 38.8608 3.02734C38.811 3.31738 38.7861 3.64697 38.7861 4.01611C38.7861 4.38525 38.811 4.71484 38.8608 5.00488C38.9136 5.29492 38.9985 5.53955 39.1157 5.73877C39.2329 5.93506 39.3867 6.08594 39.5771 6.19141C39.7705 6.29395 40.0063 6.34521 40.2847 6.34521ZM43.7959 1.03223H45.9932C46.2246 1.03223 46.4414 1.06445 46.6436 1.12891C46.8457 1.19043 47.02 1.28564 47.1665 1.41455C47.313 1.54053 47.4287 1.69873 47.5137 1.88916C47.5986 2.07666 47.6411 2.29492 47.6411 2.54395C47.6411 2.67578 47.6177 2.80615 47.5708 2.93506C47.5269 3.06396 47.4639 3.18555 47.3818 3.2998C47.3027 3.41113 47.209 3.51074 47.1006 3.59863C46.9922 3.68359 46.875 3.74805 46.749 3.79199C46.8809 3.81543 47.0127 3.86523 47.1445 3.94141C47.2764 4.01758 47.395 4.11865 47.5005 4.24463C47.606 4.37061 47.6909 4.51855 47.7554 4.68848C47.8228 4.85547 47.8564 5.04004 47.8564 5.24219C47.8564 5.52051 47.814 5.76807 47.729 5.98486C47.647 6.20166 47.5225 6.38623 47.3555 6.53857C47.1885 6.68799 46.9819 6.80225 46.7358 6.88135C46.4897 6.96045 46.2041 7 45.8789 7H43.7959V1.03223ZM45.7734 6.25293C45.9346 6.25293 46.0796 6.23535 46.2085 6.2002C46.3403 6.16504 46.4531 6.10791 46.5469 6.02881C46.6406 5.94971 46.7124 5.84717 46.7622 5.72119C46.8149 5.59521 46.8413 5.44141 46.8413 5.25977C46.8413 5.0752 46.8149 4.92139 46.7622 4.79834C46.7124 4.67236 46.6421 4.57129 46.5513 4.49512C46.4634 4.41602 46.3579 4.36035 46.2349 4.32812C46.1147 4.2959 45.9844 4.27979 45.8438 4.27979H44.7935V6.25293H45.7734ZM46.0327 3.61621C46.2378 3.55469 46.3872 3.4375 46.481 3.26465C46.5776 3.08887 46.626 2.85449 46.626 2.56152C46.626 2.3125 46.5527 2.11914 46.4062 1.98145C46.2598 1.84082 46.0576 1.77051 45.7998 1.77051H44.7935V3.61621H46.0327ZM49.9219 1.03223H51.4204L53.2046 7H52.207L51.6621 5.17627H49.7329L49.2144 7H48.1904L49.9219 1.03223ZM51.4556 4.41162L50.6514 1.48486L49.9263 4.41162H51.4556ZM53.8594 1.03223H54.8569V6.17383C54.98 6.17383 55.1074 6.17236 55.2393 6.16943C55.374 6.1665 55.5073 6.16357 55.6392 6.16064C55.7739 6.15771 55.9043 6.15479 56.0303 6.15186C56.1592 6.146 56.2808 6.14014 56.395 6.13428C56.6646 6.12256 56.9282 6.11084 57.186 6.09912C57.186 6.14893 57.1787 6.22363 57.1641 6.32324C57.1523 6.42285 57.1377 6.52393 57.1201 6.62646C57.1025 6.72607 57.085 6.81396 57.0674 6.89014C57.0527 6.96338 57.041 7 57.0322 7H53.8594V1.03223Z" fill="#E1E1E1"/>
</svg>
