<svg width="96" height="48" viewBox="0 0 96 48" fill="none" xmlns="http://www.w3.org/2000/svg">
<path d="M3.32 36V19.16C3.32 18.44 3.38667 18 3.52 17.84C3.68 17.68 4.05333 17.6 4.64 17.6H6.84L13.44 32.28L13.52 32.56L13.6 32.44L13.68 32.16L20.28 17.6H22.6C23.16 17.6 23.52 17.6667 23.68 17.8C23.8667 17.9067 23.96 18.24 23.96 18.8V34.76C23.96 35.1333 23.92 35.4 23.84 35.56C23.7867 35.72 23.6667 35.84 23.48 35.92C23.32 35.9733 23.0667 36 22.72 36H20.84V20.96L20.68 21.52L14.16 36H12.08L5.68 21.8L5.56 21.24V36H3.32ZM51.1325 36C50.5192 36 50.2125 35.68 50.2125 35.04V21.2C50.9858 20.8533 51.9992 20.5467 53.2525 20.28C54.5325 20.0133 55.9992 19.88 57.6525 19.88C59.1992 19.88 60.4525 19.9867 61.4125 20.2C62.3725 20.4133 63.1058 20.7333 63.6125 21.16C64.1192 21.5867 64.4525 22.1467 64.6125 22.84C64.7992 23.5067 64.8925 24.32 64.8925 25.28V34.8C64.8925 35.0933 64.8525 35.3333 64.7725 35.52C64.7192 35.7067 64.5992 35.84 64.4125 35.92C64.2525 35.9733 63.9992 36 63.6525 36H62.0925V24.72C62.0925 23.6533 61.7458 22.8667 61.0525 22.36C60.3592 21.8533 59.2258 21.6 57.6525 21.6C57.1458 21.6 56.5858 21.64 55.9725 21.72C55.3858 21.8 54.8258 21.92 54.2925 22.08C53.7592 22.2133 53.3192 22.4 52.9725 22.64V36H51.1325ZM77.0303 36.24C75.4836 36.24 74.177 36.1333 73.1103 35.92C72.0703 35.7067 71.2303 35.3067 70.5903 34.72C69.977 34.1333 69.5236 33.32 69.2303 32.28C68.9636 31.2133 68.8303 29.84 68.8303 28.16C68.8303 26.24 69.0703 24.6667 69.5503 23.44C70.0303 22.2133 70.8836 21.3067 72.1103 20.72C73.337 20.1333 75.057 19.84 77.2703 19.84C78.977 19.84 80.337 20.0667 81.3503 20.52C82.3903 20.9733 83.137 21.6667 83.5903 22.6C84.0703 23.5333 84.3103 24.7467 84.3103 26.24V28.52H73.0303C73.0303 28.2 73.1103 27.9333 73.2703 27.72C73.4303 27.48 73.7236 27.36 74.1503 27.36H81.7903L81.7503 26.2C81.7236 24.5467 81.3636 23.3467 80.6703 22.6C80.0036 21.8533 78.8303 21.48 77.1503 21.48C75.737 21.48 74.6303 21.6933 73.8303 22.12C73.0303 22.5467 72.4703 23.24 72.1503 24.2C71.8303 25.16 71.6703 26.4667 71.6703 28.12C71.6703 29.88 71.8436 31.2267 72.1903 32.16C72.5636 33.0667 73.177 33.6933 74.0303 34.04C74.8836 34.36 76.0436 34.52 77.5103 34.52C78.017 34.52 78.5903 34.5067 79.2303 34.48C79.897 34.4267 80.5636 34.3733 81.2303 34.32C81.897 34.2667 82.4836 34.2 82.9903 34.12C83.5236 34.0133 83.897 33.9067 84.1103 33.8V34.28C84.1103 34.5467 84.0303 34.8 83.8703 35.04C83.737 35.28 83.4436 35.48 82.9903 35.64C82.4036 35.88 81.6036 36.04 80.5903 36.12C79.6036 36.2 78.417 36.24 77.0303 36.24ZM92.0641 36.12C91.1574 36.12 90.4507 36.0133 89.9441 35.8C89.4374 35.56 89.0641 35.16 88.8241 34.6C88.5841 34.04 88.4641 33.28 88.4641 32.32V21.6H86.9441V20.04H88.4641V17.16C88.4641 16.76 88.4907 16.4667 88.5441 16.28C88.6241 16.0667 88.7441 15.9333 88.9041 15.88C89.0641 15.8267 89.2907 15.8 89.5841 15.8H91.3041C91.3041 15.8533 91.2907 15.9733 91.2641 16.16C91.2641 16.32 91.2641 16.56 91.2641 16.88V20.04H94.9841V21.6H91.2641V32C91.2641 33.04 91.3707 33.7733 91.5841 34.2C91.7974 34.6267 92.2774 34.84 93.0241 34.84C93.3174 34.84 93.6241 34.8133 93.9441 34.76C94.2641 34.7067 94.4907 34.6533 94.6241 34.6V35.84C94.4641 35.8667 94.1574 35.92 93.7041 36C93.2507 36.08 92.7041 36.12 92.0641 36.12Z" fill="url(#paint0_linear_15_10)"/>
<circle cx="37" cy="27.3333" r="8" stroke="url(#paint1_linear_15_10)" stroke-width="3"/>
<rect x="39.165" y="22.5185" width="5.33333" height="0.666667" rx="0.333333" transform="rotate(-141.347 39.165 22.5185)" fill="url(#paint2_linear_15_10)"/>
<rect x="39.7512" y="16.5461" width="5.33333" height="0.666667" rx="0.333333" transform="rotate(145 39.7512 16.5461)" fill="url(#paint3_linear_15_10)"/>
<defs>
<linearGradient id="paint0_linear_15_10" x1="47.9259" y1="5.9046e-06" x2="48.1656" y2="47.9995" gradientUnits="userSpaceOnUse">
<stop stop-color="#17427B"/>
<stop offset="1" stop-color="#5797EC"/>
</linearGradient>
<linearGradient id="paint1_linear_15_10" x1="37" y1="19.3333" x2="37" y2="35.3333" gradientUnits="userSpaceOnUse">
<stop stop-color="#52DD8C"/>
<stop offset="0.5" stop-color="#45C2B3"/>
<stop offset="1" stop-color="#D4E679"/>
</linearGradient>
<linearGradient id="paint2_linear_15_10" x1="39.165" y1="22.6312" x2="39.2555" y2="23.5753" gradientUnits="userSpaceOnUse">
<stop offset="0.502206" stop-color="#1488CB"/>
<stop offset="0.980909" stop-color="#17427B"/>
</linearGradient>
<linearGradient id="paint3_linear_15_10" x1="39.7512" y1="16.6588" x2="39.8417" y2="17.6029" gradientUnits="userSpaceOnUse">
<stop offset="0.502206" stop-color="#1488CB"/>
<stop offset="0.980909" stop-color="#17427B"/>
</linearGradient>
</defs>
</svg>
