<svg width="13" height="12" viewBox="0 0 13 12" fill="none" xmlns="http://www.w3.org/2000/svg">
<path d="M8.92273 6.36364L8.06591 5.48485C8.15455 5.0101 8.02159 4.56566 7.66705 4.15152C7.3125 3.73737 6.85455 3.57576 6.29318 3.66667L5.43636 2.78788C5.60379 2.70707 5.77367 2.64646 5.94602 2.60606C6.11837 2.56566 6.30303 2.54545 6.5 2.54545C7.23864 2.54545 7.86648 2.81061 8.38352 3.34091C8.90057 3.87121 9.15909 4.51515 9.15909 5.27273C9.15909 5.47475 9.13939 5.66414 9.1 5.84091C9.06061 6.01768 9.00152 6.19192 8.92273 6.36364ZM10.8136 8.27273L9.95682 7.42424C10.3311 7.13131 10.6634 6.81061 10.954 6.46212C11.2445 6.11364 11.4932 5.71717 11.7 5.27273C11.2076 4.25253 10.5009 3.44192 9.58011 2.84091C8.65928 2.2399 7.63258 1.93939 6.5 1.93939C6.21439 1.93939 5.93371 1.9596 5.65795 2C5.3822 2.0404 5.11136 2.10101 4.84545 2.18182L3.92955 1.24242C4.33333 1.07071 4.74697 0.941919 5.17045 0.856061C5.59394 0.770202 6.03712 0.727273 6.5 0.727273C7.98712 0.727273 9.31174 1.14899 10.4739 1.99242C11.636 2.83586 12.478 3.92929 13 5.27273C12.7735 5.86869 12.4756 6.42172 12.1062 6.93182C11.7369 7.44192 11.3061 7.88889 10.8136 8.27273ZM11.1091 12L8.62727 9.48485C8.28258 9.59596 7.93542 9.67929 7.5858 9.73485C7.23617 9.7904 6.87424 9.81818 6.5 9.81818C5.01288 9.81818 3.68826 9.39647 2.52614 8.55303C1.36402 7.7096 0.52197 6.61616 0 5.27273C0.206818 4.73737 0.467803 4.2399 0.782955 3.7803C1.09811 3.32071 1.45758 2.90909 1.86136 2.54545L0.236364 0.848485L1.06364 0L11.9364 11.1515L11.1091 12ZM2.68864 3.39394C2.40303 3.65657 2.14205 3.94444 1.90568 4.25758C1.66932 4.57071 1.46742 4.90909 1.3 5.27273C1.79242 6.29293 2.49905 7.10354 3.41989 7.70455C4.34072 8.30556 5.36742 8.60606 6.5 8.60606C6.69697 8.60606 6.88902 8.59343 7.07614 8.56818C7.26326 8.54293 7.4553 8.51515 7.65227 8.48485L7.12045 7.90909C7.01212 7.93939 6.90871 7.96212 6.81023 7.97727C6.71174 7.99242 6.60833 8 6.5 8C5.76136 8 5.13352 7.73485 4.61648 7.20455C4.09943 6.67424 3.84091 6.0303 3.84091 5.27273C3.84091 5.16162 3.8483 5.05556 3.86307 4.95455C3.87784 4.85354 3.9 4.74747 3.92955 4.63636L2.68864 3.39394Z" fill="#999999"/>
</svg>
